<?xml version="1.0" encoding="UTF-8" standalone="no"?>
<!DOCTYPE svg PUBLIC "-//W3C//DTD SVG 1.1//EN" "http://www.w3.org/Graphics/SVG/1.1/DTD/svg11.dtd">
<svg width="100%" height="100%" viewBox="0 0 1465 967" version="1.1" xmlns="http://www.w3.org/2000/svg" xmlns:xlink="http://www.w3.org/1999/xlink" xml:space="preserve" xmlns:serif="http://www.serif.com/" style="fill-rule:evenodd;clip-rule:evenodd;stroke-linecap:round;stroke-linejoin:round;stroke-miterlimit:1.5;">
    <g transform="matrix(1,0,0,1,-961.028,-694.48)">
        <g transform="matrix(5.46627,0,0,5.40861,-4268.46,-3071.74)">
            <path d="M971.715,825.379C976.761,824.529 979.409,819.729 979.409,814.929C979.409,806.882 974.263,803.585 966.811,803.585L956.865,803.585L956.865,841.279L964.209,841.279L964.209,826.079L964.309,826.079L973.464,841.279L982.359,841.279L971.715,825.379ZM964.209,809.579L965.21,809.579C969.113,809.579 972.065,810.479 972.065,815.129C972.065,819.729 969.213,820.929 965.16,820.929L964.209,820.929L964.209,809.579Z" style="fill:rgb(35,31,32);fill-rule:nonzero;"/>
        </g>
        <g transform="matrix(5.46627,0,0,5.40861,-4260.46,-3071.74)">
            <path d="M1004.26,809.979L1004.26,803.585L984.765,803.585L984.765,841.279L1004.26,841.279L1004.26,834.885L992.109,834.885L992.109,824.679L1003.81,824.679L1003.81,818.285L992.109,818.285L992.109,809.979L1004.26,809.979Z" style="fill:rgb(35,31,32);fill-rule:nonzero;"/>
        </g>
        <g transform="matrix(6.08052,0,0,6.01639,-4556.8,-3583.08)">
            <path d="M958.262,841.282C957.662,841.282 957.362,840.966 957.362,840.332L957.362,808.282C957.362,807.616 957.662,807.282 958.262,807.282L959.312,807.282C959.912,807.282 960.212,807.616 960.212,808.282L960.212,840.332C960.212,840.966 959.912,841.282 959.312,841.282L958.262,841.282Z" style="fill:rgb(35,31,32);fill-rule:nonzero;"/>
        </g>
        <g transform="matrix(6.08052,0,0,6.01639,-4552.8,-3583.08)">
            <path d="M999.512,841.282C998.879,841.282 998.562,840.966 998.562,840.332L998.562,813.482C996.395,818.049 994.229,822.591 992.062,827.107C989.895,831.624 987.712,836.149 985.512,840.682L985.512,840.632C985.445,840.799 985.329,840.949 985.162,841.082C984.995,841.216 984.845,841.282 984.712,841.282L983.562,841.282C983.395,841.282 983.22,841.216 983.037,841.082C982.854,840.949 982.745,840.782 982.712,840.582C981.545,838.149 980.42,835.824 979.337,833.607C978.254,831.391 977.187,829.182 976.137,826.982C975.087,824.782 974.029,822.574 972.962,820.357C971.895,818.141 970.779,815.816 969.612,813.382L969.612,840.332C969.612,840.966 969.295,841.282 968.662,841.282L967.662,841.282C967.029,841.282 966.712,840.966 966.712,840.332L966.712,808.282C966.712,807.616 967.029,807.282 967.662,807.282L969.262,807.282C969.429,807.282 969.595,807.349 969.762,807.482C969.929,807.616 970.045,807.766 970.112,807.932L970.112,807.882C972.479,812.882 974.804,817.732 977.087,822.432C979.37,827.132 981.695,831.982 984.062,836.982C986.329,832.249 988.595,827.566 990.862,822.932C992.029,820.532 993.229,818.049 994.462,815.482C995.695,812.916 996.912,810.382 998.112,807.882L998.112,807.932C998.179,807.766 998.304,807.616 998.487,807.482C998.67,807.349 998.829,807.282 998.962,807.282L1000.51,807.282C1001.14,807.282 1001.46,807.616 1001.46,808.282L1001.46,840.332C1001.46,840.966 1001.14,841.282 1000.51,841.282L999.512,841.282Z" style="fill:rgb(35,31,32);fill-rule:nonzero;"/>
        </g>
        <g transform="matrix(6.08052,0,0,6.01639,-4570.8,-3583.08)">
            <path d="M1037.86,841.282C1037.69,841.282 1037.53,841.216 1037.36,841.082C1037.19,840.949 1037.08,840.799 1037.01,840.632L1037.01,840.682C1036.28,838.982 1035.57,837.324 1034.89,835.707C1034.2,834.091 1033.5,832.432 1032.76,830.732L1016.16,830.732C1015.93,831.232 1015.7,831.716 1015.49,832.182C1015.27,832.649 1015.05,833.149 1014.81,833.682C1014.28,834.849 1013.76,836.032 1013.26,837.232C1012.76,838.432 1012.26,839.582 1011.76,840.682L1011.76,840.632C1011.7,840.799 1011.57,840.949 1011.39,841.082C1011.2,841.216 1011.05,841.282 1010.91,841.282L1009.71,841.282C1009.35,841.282 1009.07,841.141 1008.89,840.857C1008.7,840.574 1008.7,840.266 1008.86,839.932L1023.06,807.882L1023.06,807.932C1023.13,807.766 1023.25,807.616 1023.41,807.482C1023.58,807.349 1023.75,807.282 1023.91,807.282L1025.16,807.282C1025.3,807.282 1025.45,807.349 1025.64,807.482C1025.82,807.616 1025.94,807.766 1026.01,807.932L1026.01,807.882C1028.31,813.249 1030.61,818.591 1032.91,823.907C1035.21,829.224 1037.51,834.566 1039.81,839.932C1039.98,840.266 1039.97,840.574 1039.79,840.857C1039.6,841.141 1039.33,841.282 1038.96,841.282L1037.86,841.282ZM1024.61,811.832C1023.35,814.599 1022.13,817.266 1020.96,819.832C1019.8,822.399 1018.6,825.099 1017.36,827.932L1031.46,827.932L1024.61,811.832Z" style="fill:rgb(35,31,32);fill-rule:nonzero;"/>
        </g>
        <g transform="matrix(6.01901,0,0,5.95553,-4512.68,-3533.96)">
            <path d="M1075.76,827.332C1075.76,832.132 1073.98,835.849 1070.41,838.482C1068.94,839.482 1067.35,840.257 1065.61,840.807C1063.88,841.357 1062,841.632 1059.96,841.632C1057.33,841.632 1054.94,841.241 1052.81,840.457C1050.68,839.674 1048.8,838.532 1047.16,837.032C1045.66,835.532 1044.5,833.741 1043.66,831.657C1042.83,829.574 1042.41,827.216 1042.41,824.582C1042.41,819.282 1043.98,815.032 1047.11,811.832C1050.25,808.632 1054.44,807.032 1059.71,807.032C1065.88,807.032 1070.26,808.982 1072.86,812.882C1073.03,813.149 1073.1,813.407 1073.06,813.657C1073.03,813.907 1072.88,814.099 1072.61,814.232C1072.48,814.332 1072.34,814.432 1072.19,814.532C1072.04,814.632 1071.91,814.716 1071.81,814.782C1071.55,814.882 1071.29,814.907 1071.04,814.857C1070.79,814.807 1070.6,814.699 1070.46,814.532C1068.46,811.399 1064.88,809.832 1059.71,809.832C1055.31,809.832 1051.8,811.149 1049.16,813.782C1046.56,816.382 1045.26,819.916 1045.26,824.382C1045.26,828.982 1046.58,832.549 1049.21,835.082C1050.48,836.349 1052.01,837.282 1053.81,837.882C1055.61,838.482 1057.66,838.782 1059.96,838.782C1063.56,838.782 1066.55,837.849 1068.91,835.982C1070.21,834.949 1071.19,833.774 1071.86,832.457C1072.53,831.141 1072.86,829.632 1072.86,827.932L1072.86,826.332L1059.81,826.332C1059.14,826.332 1058.81,825.999 1058.81,825.332L1058.81,824.482C1058.81,823.816 1059.14,823.482 1059.81,823.482L1074.76,823.482C1075.03,823.482 1075.25,823.566 1075.41,823.732C1075.58,823.899 1075.66,824.116 1075.66,824.382C1075.69,824.749 1075.72,825.257 1075.74,825.907C1075.75,826.557 1075.76,827.032 1075.76,827.332Z" style="fill:rgb(35,31,32);fill-rule:nonzero;"/>
        </g>
        <g transform="matrix(6.08052,0,0,6.01639,-4576.8,-3583.08)">
            <path d="M1082.26,841.282C1081.66,841.282 1081.36,840.966 1081.36,840.332L1081.36,808.282C1081.36,807.616 1081.66,807.282 1082.26,807.282L1083.31,807.282C1083.91,807.282 1084.21,807.616 1084.21,808.282L1084.21,840.332C1084.21,840.966 1083.91,841.282 1083.31,841.282L1082.26,841.282Z" style="fill:rgb(35,31,32);fill-rule:nonzero;"/>
        </g>
        <g transform="matrix(6.08052,0,0,6.01639,-4568.8,-3583.08)">
            <path d="M1116.41,841.282C1116.31,841.282 1116.17,841.232 1115.99,841.132C1115.8,841.032 1115.68,840.916 1115.61,840.782L1115.66,840.882C1113.73,838.382 1111.85,835.949 1110.01,833.582C1108.18,831.216 1106.35,828.849 1104.54,826.482C1102.72,824.116 1100.89,821.749 1099.06,819.382C1097.23,817.016 1095.35,814.582 1093.41,812.082L1093.41,840.332C1093.41,840.966 1093.1,841.282 1092.46,841.282L1091.51,841.282C1090.85,841.282 1090.51,840.966 1090.51,840.332L1090.51,808.282C1090.51,807.616 1090.85,807.282 1091.51,807.282L1092.96,807.282C1093.06,807.282 1093.2,807.332 1093.39,807.432C1093.57,807.532 1093.69,807.649 1093.76,807.782L1093.71,807.682C1094.98,809.449 1096.61,811.616 1098.61,814.182C1100.61,816.749 1102.96,819.749 1105.66,823.182L1105.66,823.132C1105.73,823.199 1105.84,823.341 1105.99,823.557C1106.14,823.774 1106.3,823.999 1106.46,824.232C1107.56,825.599 1108.56,826.857 1109.46,828.007C1110.36,829.157 1111.2,830.224 1111.99,831.207C1112.77,832.191 1113.49,833.107 1114.14,833.957C1114.79,834.807 1115.39,835.616 1115.96,836.382L1115.96,808.282C1115.96,807.616 1116.28,807.282 1116.91,807.282L1117.86,807.282C1118.53,807.282 1118.86,807.616 1118.86,808.282L1118.86,840.332C1118.86,840.966 1118.53,841.282 1117.86,841.282L1116.41,841.282Z" style="fill:rgb(35,31,32);fill-rule:nonzero;"/>
        </g>
        <g transform="matrix(6.08052,0,0,6.01639,-4570.8,-3583.08)">
            <path d="M1126.76,841.282C1126.1,841.282 1125.76,840.966 1125.76,840.332L1125.76,808.282C1125.76,807.616 1126.1,807.282 1126.76,807.282L1149.41,807.282C1150.05,807.282 1150.36,807.616 1150.36,808.282L1150.36,809.182C1150.36,809.816 1150.05,810.132 1149.41,810.132L1128.61,810.132L1128.61,822.232L1146.91,822.232C1147.21,822.232 1147.44,822.316 1147.61,822.482C1147.78,822.649 1147.86,822.866 1147.86,823.132L1147.86,824.032C1147.86,824.666 1147.55,824.982 1146.91,824.982L1128.61,824.982L1128.61,838.482L1149.61,838.482C1150.28,838.482 1150.61,838.799 1150.61,839.432L1150.61,840.332C1150.61,840.966 1150.28,841.282 1149.61,841.282L1126.76,841.282Z" style="fill:rgb(35,31,32);fill-rule:nonzero;"/>
        </g>
        <g transform="matrix(3.02052,0,0,3.02052,-1932.67,-880.646)">
            <g transform="matrix(1,0,0,1,0,-0.331069)">
                <path d="M987.562,814.782C986.995,815.016 986.562,814.932 986.262,814.532C984.262,811.399 980.662,809.832 975.462,809.832C971.095,809.832 967.579,811.149 964.912,813.782C962.345,816.349 961.062,819.882 961.062,824.382C961.062,828.716 962.295,832.216 964.762,834.882C967.295,837.482 970.695,838.782 974.962,838.782C979.862,838.782 983.495,837.166 985.862,833.932L985.812,833.982C985.979,833.716 986.187,833.566 986.437,833.532C986.687,833.499 986.945,833.566 987.212,833.732L988.062,834.332C988.229,834.499 988.32,834.707 988.337,834.957C988.354,835.207 988.329,835.432 988.262,835.632C985.362,839.632 980.945,841.632 975.012,841.632C969.812,841.632 965.712,840.066 962.712,836.932C959.679,833.899 958.162,829.782 958.162,824.582C958.162,819.282 959.729,815.032 962.862,811.832C965.995,808.632 970.195,807.032 975.462,807.032C981.629,807.032 986.012,808.982 988.612,812.882C988.779,813.149 988.845,813.407 988.812,813.657C988.779,813.907 988.629,814.099 988.362,814.232L988.412,814.182L987.562,814.782Z" style="fill:rgb(35,31,32);fill-rule:nonzero;"/>
            </g>
            <g transform="matrix(1,0,0,1,0,-0.331069)">
                <path d="M1053.81,841.282C1053.14,841.282 1052.81,840.966 1052.81,840.332L1052.81,808.282C1052.81,807.616 1053.14,807.282 1053.81,807.282L1076.46,807.282C1077.1,807.282 1077.41,807.616 1077.41,808.282L1077.41,809.182C1077.41,809.816 1077.1,810.132 1076.46,810.132L1055.66,810.132L1055.66,822.232L1073.96,822.232C1074.26,822.232 1074.5,822.316 1074.66,822.482C1074.83,822.649 1074.91,822.866 1074.91,823.132L1074.91,824.032C1074.91,824.666 1074.6,824.982 1073.96,824.982L1055.66,824.982L1055.66,838.482L1076.66,838.482C1077.33,838.482 1077.66,838.799 1077.66,839.432L1077.66,840.332C1077.66,840.966 1077.33,841.282 1076.66,841.282L1053.81,841.282Z" style="fill:rgb(35,31,32);fill-rule:nonzero;"/>
            </g>
            <g transform="matrix(1,0,0,1,0,-0.331069)">
                <path d="M1168.46,841.282C1168.36,841.282 1168.22,841.232 1168.04,841.132C1167.85,841.032 1167.73,840.916 1167.66,840.782L1167.71,840.882C1165.78,838.382 1163.89,835.949 1162.06,833.582C1160.23,831.216 1158.4,828.849 1156.59,826.482C1154.77,824.116 1152.94,821.749 1151.11,819.382C1149.28,817.016 1147.39,814.582 1145.46,812.082L1145.46,840.332C1145.46,840.966 1145.14,841.282 1144.51,841.282L1143.56,841.282C1142.89,841.282 1142.56,840.966 1142.56,840.332L1142.56,808.282C1142.56,807.616 1142.89,807.282 1143.56,807.282L1145.01,807.282C1145.11,807.282 1145.25,807.332 1145.44,807.432C1145.62,807.532 1145.75,807.649 1145.81,807.782L1145.76,807.682C1147.03,809.449 1148.66,811.616 1150.66,814.182C1152.66,816.749 1155.01,819.749 1157.71,823.182L1157.71,823.132C1157.78,823.199 1157.89,823.341 1158.04,823.557C1158.19,823.774 1158.35,823.999 1158.51,824.232C1159.61,825.599 1160.61,826.857 1161.51,828.007C1162.41,829.157 1163.25,830.224 1164.04,831.207C1164.82,832.191 1165.54,833.107 1166.19,833.957C1166.84,834.807 1167.44,835.616 1168.01,836.382L1168.01,808.282C1168.01,807.616 1168.33,807.282 1168.96,807.282L1169.91,807.282C1170.58,807.282 1170.91,807.616 1170.91,808.282L1170.91,840.332C1170.91,840.966 1170.58,841.282 1169.91,841.282L1168.46,841.282Z" style="fill:rgb(35,31,32);fill-rule:nonzero;"/>
            </g>
            <g transform="matrix(1,0,0,1,0,-0.331069)">
                <path d="M1250.86,810.132L1250.86,840.332C1250.86,840.966 1250.56,841.282 1249.96,841.282L1248.91,841.282C1248.31,841.282 1248.01,840.966 1248.01,840.332L1248.01,810.132L1236.81,810.132C1236.21,810.132 1235.91,809.816 1235.91,809.182L1235.91,808.282C1235.91,807.616 1236.21,807.282 1236.81,807.282L1262.06,807.282C1262.33,807.282 1262.55,807.374 1262.71,807.557C1262.88,807.741 1262.96,807.982 1262.96,808.282L1262.96,809.182C1262.96,809.449 1262.88,809.674 1262.71,809.857C1262.55,810.041 1262.33,810.132 1262.06,810.132L1250.86,810.132Z" style="fill:rgb(35,31,32);fill-rule:nonzero;"/>
            </g>
            <g transform="matrix(1,0,0,1,0,-0.331069)">
                <path d="M1353.11,816.332C1353.11,820.432 1351.46,823.216 1348.16,824.682C1349.6,825.449 1350.71,826.499 1351.51,827.832C1352.31,829.166 1352.71,830.732 1352.71,832.532L1352.71,840.332C1352.71,840.966 1352.38,841.282 1351.71,841.282L1350.76,841.282C1350.13,841.282 1349.81,840.966 1349.81,840.332L1349.81,832.682C1349.81,828.449 1347,826.332 1341.36,826.332L1329.16,826.332L1329.16,840.332C1329.16,840.966 1328.86,841.282 1328.26,841.282L1327.21,841.282C1326.61,841.282 1326.31,840.966 1326.31,840.332L1326.31,808.282C1326.31,807.616 1326.61,807.282 1327.21,807.282L1341.81,807.282C1349.35,807.282 1353.11,810.299 1353.11,816.332ZM1350.26,816.482C1350.26,812.249 1347.48,810.132 1341.91,810.132L1329.16,810.132L1329.16,823.432L1341.11,823.432C1343.78,823.432 1345.89,822.916 1347.46,821.882C1349.33,820.682 1350.26,818.882 1350.26,816.482Z" style="fill:rgb(35,31,32);fill-rule:nonzero;"/>
            </g>
            <g transform="matrix(1,0,0,1,0,-0.331069)">
                <path d="M1419.01,841.282C1418.35,841.282 1418.01,840.966 1418.01,840.332L1418.01,808.282C1418.01,807.616 1418.35,807.282 1419.01,807.282L1441.66,807.282C1442.3,807.282 1442.61,807.616 1442.61,808.282L1442.61,809.182C1442.61,809.816 1442.3,810.132 1441.66,810.132L1420.86,810.132L1420.86,822.232L1439.16,822.232C1439.46,822.232 1439.69,822.316 1439.86,822.482C1440.03,822.649 1440.11,822.866 1440.11,823.132L1440.11,824.032C1440.11,824.666 1439.8,824.982 1439.16,824.982L1420.86,824.982L1420.86,838.482L1441.86,838.482C1442.53,838.482 1442.86,838.799 1442.86,839.432L1442.86,840.332C1442.86,840.966 1442.53,841.282 1441.86,841.282L1419.01,841.282Z" style="fill:rgb(35,31,32);fill-rule:nonzero;"/>
            </g>
        </g>
        <g transform="matrix(1.63399,0,0,1.64555,-1504.25,-281.369)">
            <path d="M1511.29,1093.29L2402.4,1093.29" style="fill:none;stroke:rgb(35,31,32);stroke-width:5.08px;"/>
        </g>
        <g transform="matrix(1.16703,0,0,1.16703,-367.308,-190.721)">
            <g transform="matrix(6.09523,0,0,6.09523,-10842.8,-8715.9)">
                <rect x="2033.54" y="1555.27" width="69.055" height="69.055" style="fill:none;stroke:rgb(35,31,32);stroke-width:1.76px;"/>
            </g>
            <g transform="matrix(3.14621,0,0,3.36972,-3741.74,-3744.47)">
                <path d="M1816.39,1421.23L1772.02,1421.23" style="fill:none;stroke:rgb(35,31,32);stroke-width:3.29px;"/>
            </g>
            <g transform="matrix(4.05905,0,0,4.05905,-6561.53,-5408.47)">
                <rect x="2033.54" y="1555.27" width="69.055" height="69.055" style="fill:none;stroke:rgb(35,31,32);stroke-width:2.64px;"/>
            </g>
        </g>
    </g>
</svg>
